# xmcd CD database file
#
# Track frame offsets:
#	182
#	13790
#	26692
#	39667
#	53660
#	65825
#	77772
#	90932
#	103410
#	114935
#	131032
#	142045
#	157425
#	167140
#	177627
#	191757
#	203577
#	215177
#	227820
#	239317
#	249470
#	261487
#	274537
#	286810
#	299217
#	313257
#
# Disc length: 4341 seconds
#
# Revision: 3
# Processed by: cddbd v1.5.1PL2 Copyright (c) Steve Scherf et al.
# Submitted via: CDex 1.51
#
DISCID=9e10f31a
DTITLE=Teddy Hill - Uptown Rhapsody - Hep
DYEAR=1936
DGENRE=Swing
TTITLE0=Lookie, Lookie, Lookie Here Comes Cookie
TTITLE1=Got Me Doin' Things
TTITLE2=When the Robin Sings His Song Again
TTITLE3=When Love Knocks at Your Heart
TTITLE4=Uptown Rhapsody
TTITLE5=At the Rug Cutter's Ball
TTITLE6=Blue Rhythm Fantasy
TTITLE7=Passionette
TTITLE8=The Love Bug Will Bite You
TTITLE9=Would You Like to Buy a Dream?
TTITLE10=Big Boy Blue
TTITLE11=Where Is the Sun?
TTITLE12=The Harlem Twister (The New Sensation)
TTITLE13=My Marie
TTITLE14=I Know Now
TTITLE15=The Lady Who Couldn't Be Kissed
TTITLE16=(Have You Forgotten) The You and Me That Used to Be?
TTITLE17=A Study in Brown
TTITLE18=Twilight in Turkey
TTITLE19=China Boy
TTITLE20=San Anton'
TTITLE21=I'm Happy, Darling, Dancing with You
TTITLE22=Yours and Mine
TTITLE23=I'm Feeling Like a Million
TTITLE24=King Porter Stomp
TTITLE25=Blue Rhythm Fantasy
EXTD=Teddy Hill with His NBC Orchestra, featuring Roy Eldridge, Bill Coleman, Dizzy Gillespie, Dickie Wells, Russell Procope, Chu Berry and others\n YEAR: 1936
EXTT0=
EXTT1=
EXTT2=
EXTT3=
EXTT4=
EXTT5=
EXTT6=
EXTT7=
EXTT8=
EXTT9=
EXTT10=
EXTT11=
EXTT12=
EXTT13=
EXTT14=
EXTT15=
EXTT16=
EXTT17=
EXTT18=
EXTT19=
EXTT20=
EXTT21=
EXTT22=
EXTT23=
EXTT24=
EXTT25=
PLAYORDER=
